<svg width="1200" height="600"><line style="stroke: #888;" x1="100" y1="20" x2="100" y2="230"></line><line style="stroke: #888;" x1="300" y1="20" x2="300" y2="230"></line><line style="stroke: #888;" x1="500" y1="20" x2="500" y2="230"></line><g transform="translate(100,20)" class="first"><rect x="-90" y="0" width="180" height="40" style="fill: #CCC;"></rect></g><g transform="translate(300,20)" class="first"><rect x="-90" y="0" width="180" height="40" style="fill: #CCC;"></rect></g><g transform="translate(500,20)" class="first"><rect x="-90" y="0" width="180" height="40" style="fill: #CCC;"></rect></g><g transform="translate(100,20)" class="first"><text dx="-50" dy="25">website</text></g><g transform="translate(300,20)" class="first"><text dx="-50" dy="25">motorProxy</text></g><g transform="translate(500,20)" class="first"><text dx="-50" dy="25">needsStore</text></g><line style="stroke: blue;" stroke-width="1" x1="100" y1="100" x2="300" y2="100" marker-end="url(#end)"><text>quotes</text></line><line style="stroke: blue;" stroke-width="1" x1="300" y1="150" x2="500" y2="150" marker-end="url(#end)"><text>needs</text></line><line style="stroke: green;" stroke-width="1" x1="300" y1="200" x2="100" y2="200" marker-end="url(#end)"><text>quotes</text></line><g transform="translate(160,90)" class="first"><text>quotes</text></g><g transform="translate(360,140)" class="first"><text>needs</text></g><g transform="translate(160,190)" class="first"><text>quotes</text></g><defs><marker id="end" stroke-width="1" viewBox="0 -5 10 10" refX="10" refY="0" markerWidth="10" markerHeight="10" orient="auto"><path d="M0,-5L10,0L0,5"></path></marker></defs></svg>